<?xml version="1.0" encoding="utf-8"?>
<!-- Generator: Adobe Illustrator 17.0.0, SVG Export Plug-In . SVG Version: 6.00 Build 0)  -->
<!DOCTYPE svg PUBLIC "-//W3C//DTD SVG 1.1//EN" "http://www.w3.org/Graphics/SVG/1.1/DTD/svg11.dtd">
<svg version="1.1" id="Calque_1" xmlns="http://www.w3.org/2000/svg" xmlns:xlink="http://www.w3.org/1999/xlink" x="0px" y="0px"
	 width="29.3px" height="6.2px" viewBox="0 0 29.3 6.2" enable-background="new 0 0 29.3 6.2" xml:space="preserve">
<g>
	<defs>
		<rect id="SVGID_1_" y="0" width="29.3" height="6.2"/>
	</defs>
	<clipPath id="SVGID_2_">
		<use xlink:href="#SVGID_1_"  overflow="visible"/>
	</clipPath>
	<path clip-path="url(#SVGID_2_)" fill="#665244" d="M4.5,0.9l2.1,2.5V2.7C5.9,3.6,5.2,4.4,4.5,5.3C4,5.8,4.8,6.6,5.2,6
		c0.7-0.9,1.4-1.7,2.2-2.6c0.2-0.2,0.2-0.5,0-0.7C6.7,1.9,6,1,5.2,0.2C4.8-0.3,4.1,0.4,4.5,0.9"/>
	<path clip-path="url(#SVGID_2_)" fill="#665244" d="M2.3,0.9C3,1.8,3.8,2.6,4.5,3.5V2.7C3.8,3.6,3,4.4,2.3,5.3C1.9,5.8,2.6,6.6,3,6
		c0.7-0.9,1.4-1.7,2.2-2.6c0.2-0.2,0.2-0.5,0-0.7C4.5,1.9,3.8,1,3.1,0.2C2.6-0.3,1.9,0.4,2.3,0.9"/>
	<path clip-path="url(#SVGID_2_)" fill="#665244" d="M0.2,0.9c0.7,0.8,1.4,1.7,2.1,2.5V2.7C1.6,3.6,0.9,4.4,0.1,5.3
		C-0.3,5.8,0.4,6.6,0.9,6C1.6,5.2,2.3,4.3,3,3.5C3.2,3.2,3.2,3,3,2.7C2.3,1.9,1.6,1,0.9,0.2C0.5-0.3-0.3,0.4,0.2,0.9"/>
	<path clip-path="url(#SVGID_2_)" fill="#665244" d="M27.5,2.6H2.7c-0.7,0-0.7,1,0,1h24.8C28.1,3.6,28.1,2.6,27.5,2.6"/>
	
		<line clip-path="url(#SVGID_2_)" fill="none" stroke="#665244" stroke-width="0.474" stroke-miterlimit="10" x1="26.4" y1="3.1" x2="17.2" y2="3.1"/>
	<polygon clip-path="url(#SVGID_2_)" fill="#665244" points="25.1,1.3 25.9,3.1 25.1,4.9 29.3,3.1 	"/>
</g>
</svg>
