<?xml version="1.0" encoding="utf-8"?>
<!-- Generator: Adobe Illustrator 17.0.0, SVG Export Plug-In . SVG Version: 6.00 Build 0)  -->
<!DOCTYPE svg PUBLIC "-//W3C//DTD SVG 1.1//EN" "http://www.w3.org/Graphics/SVG/1.1/DTD/svg11.dtd">
<svg version="1.1" id="Calque_1" xmlns="http://www.w3.org/2000/svg" xmlns:xlink="http://www.w3.org/1999/xlink" x="0px" y="0px"
	 width="31.6px" height="32.6px" viewBox="0 0 31.6 32.6" enable-background="new 0 0 31.6 32.6" xml:space="preserve">
<g>
	<circle fill="#687C5B" cx="16" cy="16.3" r="14.1"/>
	<g>
		<g>
			<g>
				<g>
					<path fill="#FFF9F9" d="M29,16.3c0.1,0,0.4,0,0.4-0.1l-0.5-0.1L29,16.3z"/>
					<path fill="#FFF9F9" d="M30,15.4c-0.3-0.1-0.7-0.3-1.2-0.1c0.5,0.1,0.3,0.1,0.9,0.3c0.1,0.1-0.2,0.2-0.3,0.2
						c0.1,0-0.1,0.2,0.2,0.3c0.4-0.2,0.4-0.4,0.1-0.6C29.7,15.4,29.9,15.4,30,15.4z"/>
					<path fill="#FFF9F9" d="M24.6,4.2l0,0.1C24.6,4.2,24.6,4.2,24.6,4.2z"/>
					<path fill="#FFF9F9" d="M17,1.2c0.1,0,0.1-0.1,0.1-0.1C17,1.1,17,1.2,17,1.2z"/>
					<path fill="#FFF9F9" d="M15.5,0.6C15.6,0.6,15.6,0.6,15.5,0.6C15.6,0.6,15.6,0.6,15.5,0.6z"/>
					<path fill="#FFF9F9" d="M24.6,4.2l-0.1-0.3C24.4,4.1,24.5,4.1,24.6,4.2z"/>
					<path fill="#FFF9F9" d="M28.5,13.9c0,0,0.1,0.1,0.1,0.1C28.7,14,28.6,13.9,28.5,13.9C28.6,13.9,28.6,13.9,28.5,13.9z"/>
					<path fill="#FFF9F9" d="M27.5,6.3L27.5,6.3c0.1,0,0.2,0,0.2,0L27.5,6.3z"/>
					<path fill="#FFF9F9" d="M29.2,8.6c0-0.1-0.4,0.1-0.6,0.2c0.2-0.1,0.3-0.1,0.3,0C29.1,8.8,29.1,8.7,29.2,8.6z"/>
					<path fill="#FFF9F9" d="M30.1,13L30.1,13C30.2,13,30.2,13,30.1,13z"/>
					<path fill="#FFF9F9" d="M26.2,4.8c0-0.1,0.1-0.1,0.1-0.1C26.2,4.7,26.2,4.8,26.2,4.8z"/>
					<path fill="#FFF9F9" d="M27.7,18.8C27.8,18.8,27.8,18.8,27.7,18.8C27.8,18.8,27.7,18.8,27.7,18.8z"/>
					<polygon fill="#FFF9F9" points="30.2,16.3 30.2,16.3 30.5,16.3 					"/>
					<path fill="#FFF9F9" d="M12.8,0.3C12.8,0.3,12.8,0.3,12.8,0.3C12.8,0.3,12.8,0.3,12.8,0.3z"/>
					<path fill="#FFF9F9" d="M0.4,19.6c0.3-0.4,0.6,0.3,0.9-0.2C1.2,19.5,0.6,19.2,0.4,19.6z"/>
					<path fill="#FFF9F9" d="M28.6,13.8C28.6,13.8,28.6,13.8,28.6,13.8C28.6,13.8,28.6,13.8,28.6,13.8z"/>
					<path fill="#FFF9F9" d="M1.4,19.4L1.4,19.4L1.4,19.4C1.4,19.4,1.4,19.4,1.4,19.4z"/>
					<path fill="#FFF9F9" d="M7,3.1c0.1,0.1,0.1,0.1,0.2,0.1C7.1,3.1,7.1,3.1,7,3.1z"/>
					<path fill="#FFF9F9" d="M11.4,1.6l-0.1,0C11.4,1.6,11.4,1.6,11.4,1.6z"/>
					<path fill="#FFF9F9" d="M5.5,5c-0.1,0-0.1,0-0.1,0.1c0,0,0,0,0.1,0C5.4,5.1,5.4,5,5.5,5z"/>
					<path fill="#FFF9F9" d="M3.9,6.9C3.9,6.9,3.9,6.9,3.9,6.9L4,6.8L3.9,6.9z"/>
					<path fill="#FFF9F9" d="M25.3,24.2c0.1,0,0.2,0.1,0.4,0.2C25.4,24.2,25.5,23.9,25.3,24.2z"/>
					<path fill="#FFF9F9" d="M28.8,13.9c-0.1,0-0.2,0-0.2,0c0,0,0,0,0,0.1C28.7,13.9,28.7,13.9,28.8,13.9z"/>
					<path fill="#FFF9F9" d="M7.8,7.6L7.5,7.8C7.6,7.8,7.7,7.7,7.8,7.6z"/>
					<path fill="#FFF9F9" d="M12.6,28.1L12.6,28.1C12.6,28,12.6,28,12.6,28.1z"/>
					<path fill="#FFF9F9" d="M7,8.5C6.8,8.4,6.7,8.4,6.6,8.4c0,0,0,0.1,0.1,0.1L7,8.5z"/>
					<path fill="#FFF9F9" d="M25.7,24.4L25.7,24.4L25.7,24.4z"/>
					<path fill="#FFF9F9" d="M26,22.1c-0.2,0.2,0.4,0.4,0.7,0.6c0,0.4-0.4-0.1-0.8-0.1c0,0.3,0.4,0.7,0.2,0.8c-0.1,0-0.1,0-0.2-0.1
						c0.2,0.5-0.4,0.6-0.1,1.2c-0.1,0-0.1,0-0.1-0.1c0.3,0.2,0.5,0.3,0.6,0.5c-0.1,0.1,0.1,0.4-0.2,0.2c0.1-0.1,0-0.2-0.1-0.3l0,0.2
						c-0.5-0.3,0-0.3-0.3-0.5c-0.1,0.3,0,0.9-0.2,0.9c-0.4-0.3,0.2-0.5-0.3-0.6l0.4-0.1c-0.8-0.4,0.2-0.1-0.6-0.5
						c-0.4,0.2-0.1,0.5-0.5,0.7c0.1,0.3,0.3,0.3,0.5,0.6c-0.1,0.8-1.2-0.7-1.1,0.2c0.1,0.3,0.5,0.9,0,0.8l-0.3-0.5
						c-0.4,0.2,0.3,0.8-0.3,0.8c-0.1-0.2,0.1-0.4,0.1-0.4c-0.5-0.2,0,0.4-0.1,0.5l-0.3-0.4c-0.3,0.3-0.5,0.9-0.9,1.2
						c0-0.2,0-0.3-0.2-0.4c-0.2,0.2-0.5,0.4-0.9,0.4c-0.3,0-0.7,0-1-0.1l-0.1,0.5c-0.1,0-0.2-0.2-0.1-0.3c-0.3-0.1,0.1,0.3,0,0.5
						c-0.1,0.1-0.2-0.2-0.2-0.4c-0.3,0.5-1,1.1-1.5,0.7l0.1-0.1c-0.4-0.1-0.3,1-0.6,0.6l0.1-0.1c-0.8-0.1-1.6,0.3-2.1-0.4
						c-0.2,0.7-0.7-0.3-0.8,0.6c-0.4-0.5-0.2-0.7-0.7-1c-0.1-0.1-0.3,0.5-0.6,0.6l0.1-0.5l-0.4,0.4l0-0.6L12.7,28
						c0.1,0,0.1,0.2,0,0.4c-0.3,0.1-0.6-0.5-0.5-0.7l-0.8,0.2c0.1-0.2,0.2-0.2,0.3-0.3c-0.5,0.3,0.1-0.5-0.3-0.2
						c0,0.1-0.1,0.3-0.2,0.3c0-0.3-0.4-0.5-0.7-0.5l0.2-0.3c-0.4-0.3-1-0.3-1.4-0.6C9.5,26.5,9.1,27,8.9,27l0.2-0.5
						c-0.3,0.2,0,0.3-0.4,0.5c-0.1-0.2,0.2-0.6,0.4-0.6l-0.3,0C9,26.2,9.1,26.2,9.2,26c-0.3,0.2,0-0.7-0.5-0.3l0.1-0.1
						c-0.4-0.3-0.7-0.4-1.1-0.6c-0.3,0.3-0.4,0.1-0.7,0.3c-0.1-0.4-0.1-0.9-0.4-1.1C6.3,24,6.3,24.3,6,24.3c0.3-0.3,0-0.6,0.4-0.6
						c-0.3-0.4-0.5-0.4-1-0.8c-0.1,0.1-0.1,0.3-0.3,0.3c-0.1-0.1,0-0.3,0.2-0.4l0.1,0c-0.4-0.1-0.4-0.6-0.3-1.1
						c0.1-0.5,0.1-0.8-0.3-0.9l0,0l-0.6-0.4c0-0.3,0.3,0,0.5-0.2c-0.9-0.4-0.2-0.9-0.7-1.3c0.5-0.3,0.5-0.6,0.3-1
						c-0.1-0.3-0.3-0.7,0.1-1L4,17c-0.3-0.1,0.2-0.2,0.2-0.3c-0.2,0-0.2,0.2-0.4,0.1c-0.2-0.6-0.1-1.2,0.1-1.7
						c0.1-0.3,0.3-0.6,0.4-0.8c0.1-0.3,0.3-0.5,0.4-0.8c0.2-0.4-1.3-0.6-0.6-0.9l0.5,0.3c-0.2-0.5,0-0.9,0.2-1.3
						c0.2-0.4,0.4-0.8,0.4-1.3c0.1,0.1,0.2,0.2,0.2,0.2c0.4,0,0.3-0.5,0.1-0.7C5.5,9.8,5.7,10,5.9,10c0.3,0-0.2-0.6,0.2-0.5
						c0.1,0,0.1,0.1,0.1,0.1C6,9.4,6.5,9.2,6.1,9.1c0.4-0.1,0.2-0.6,0.6-0.6C6.4,8,7.2,8.2,6.7,7.7c0.5,0.5,0.8,0,0.7-0.4
						c0.1,0.2,0.3,0,0.4,0.3C8,7.4,8.1,7.2,7.8,7C8.6,7.3,8,5.9,8.9,6.6C9,6.2,9.2,5.9,9.4,5.7c0.2-0.3,0.4-0.6,0.7-0.8
						c0.3,0.6-0.6,0.4-0.2,1c0.3-0.6,0.4-1.2,1-1.3c0.2,0,0,0.3,0,0.4c0.4-0.5,1.1-0.4,1.4-0.9c0,0.1,0,0.1-0.1,0.2
						c0.1,0,0.3,0,0.2-0.3l-0.1,0.1c-0.3-0.4,0.1-1,0.1-1.3c0,0.9,0.6,0.1,0.6,1.3c0.1-0.1,0.1-0.2,0-0.4c0.1,0,0.2,0.1,0.1,0.4
						c0.3-0.3,0.1-0.5,0.5-0.6c0,0.2,0,0.2,0,0.4c0.1-0.3,0.2-0.6,0.6-0.6c0,0.1,0,0.2,0,0.2C14.7,3.5,15,2.8,15.6,3
						c-0.1,0.7,0.2,0.2,0.2,0.8c0,0,0.3-0.2,0.3-0.2L16,3.4c0.3,0,0.5-0.4,0.7-0.2l-0.2,0.2L17,3.3l-0.3-0.2c0.3-0.3,0-0.7,0.4-0.6
						c-0.1,0.1,0.3,0,0.4,0.4l0,0c0.2-0.2,0.3-0.3,0.5-0.2c0,0.2-0.1,0.6-0.1,0.8c0.2-0.5,0.6-0.1,0.9-0.5c-0.1,0.1-0.1,0.4-0.1,0.5
						l0.2-0.4c0.1,0.2,0.1,0.2,0,0.5c0.3,0.2,0.1-0.7,0.4-0.3c0,0,0,0.1-0.1,0.1c0.4,0.3,0.9,0,1.2,0.3c-0.1,0.6-0.4,0-0.4,0.5
						c0.6,0.1,1.4-0.3,1.8,0.1l-0.1-0.1c0.4-0.7,0.2,0.5,0.6,0.3c-0.1,0-0.3,0.4-0.2,0.3c0.3,0.3,0.8,0.2,1.4,0.3l-0.2,0.1
						c0.1,0.3,0.4,0.4,0.6,0.7c0.2-0.1,0.3,0,0.4-0.3c-0.1,0.7,0.3,0.8,0.7,0.9c0.4,0.1,0.8,0.2,0.6,0.8c-0.1-0.1-0.3,0-0.2,0
						L26,7.7c0.2-0.3,0.1-0.2,0.2-0.5c0.2-0.1,0.5-0.1,0.6,0c-0.4,0-0.4,0.4-0.5,0.6c0.1-0.1,0.2-0.1,0.3-0.2
						c-0.3,0.6,0.6-0.4,0.5,0.2L26.9,8C27,8,27.3,8,27.4,8.2c-0.3,0.3-0.3,0-0.5,0.2c0.2,0.2,0.9-0.1,0.7,0.4
						c-0.2,0-0.2-0.2-0.4-0.2C26.9,9,27,9,27,9.2l0,0l0,0.5l0.1-0.2c1.1-0.3,0.5,0.4,1.3,0.4c-0.8,0-0.4,0.1-0.8,0.3
						c-0.1,0.2-0.1,0.4-0.3,0.4c0.4,0-0.1,0.4,0.5,0.4c-0.1,0.1,0.1,0.2-0.3,0.3c0.2,0.2,0.2-0.2,0.4-0.2c0.6,0.1-0.3,1,0.6,1.3
						c0.4,0.4,0.9,0.3,1.3,0.7c-0.2,0.2-0.6,0-0.6,0c-0.2,0.3-0.1,0.4,0.1,0.6c-0.1,0-0.2,0-0.4,0.1c0.1,0.2,0.6,0,0.4,0.3
						c-0.2,0-0.4,0-0.6-0.1c0.2,0.2,0.5,0.3,0.6,0.5c-0.3,0.1-0.4-0.1-0.6-0.1c0.2,0.2,0.3,0.6,0.7,0.6l0.1-0.2c0,0.1-0.4,0.1-0.4,0
						c-0.4-0.2,0.1-0.3,0.2-0.3l0.1,0.1c0.9-0.3-0.2-0.6-0.2-0.9l0.7,0l-0.6-0.2c0.2-0.1,0.5-0.2,0.6-0.1c0.3-0.3-0.3-0.2,0-0.4
						c0,0,0.1,0,0.1,0l-0.2-0.2c0.1,0,0.4-0.1,0.4,0c0.3-0.5-0.6-0.5-0.2-0.8l0,0c-0.4-0.5-0.5,0.1-1.1-0.2c0,0,0.3-0.2,0.5-0.3
						c0.3-0.2,0.5-0.3,0.5-0.3l-0.5,0.1c0-0.1,0-0.2,0.2-0.2c-0.4-0.1-0.2,0.1-0.5,0.1c0.3-0.4-0.5-0.6,0.2-1
						c-0.4,0.1-0.1,0.4-0.5,0.2c0.7-0.4-0.3-0.3-0.1-0.7c0.4-0.1,0.3,0.2,0.5-0.2c-0.7,0.2-0.1-0.6-0.3-0.7
						c-0.5,0.3-0.5-0.3-0.8-0.5C28.4,8.2,28,7.5,28,7.1L28,7c-0.5,0.3-0.6-0.1-0.9-0.2c0.3-0.2,0.4-0.3,0.6-0.2c0,0-0.2-0.2-0.2-0.2
						c-0.2,0.1-0.3,0.1-0.5,0l0.4-0.2c-0.3-0.2-0.8-0.2-0.9-0.7c-0.3,0.3-0.5,1-1,0.9c0.1-0.2,0.4-0.4,0.5-0.4c0,0-0.2,0-0.2-0.1
						l0.4-0.1c0-0.2-0.3,0.1-0.4,0c0.2-0.2,0.1-0.2,0.2-0.4c0.1,0,0,0.2,0.1,0.1c-0.1-0.2-0.1-0.4,0-0.7c-0.1,0.1-0.3,0.3-0.4,0.3
						c-0.3-0.2,0.2-0.4,0.1-0.6c-0.2,0.1-0.2-0.2-0.5,0.2c-0.1-0.1,0-0.2,0.1-0.4c-0.3,0.1-0.7-0.5-0.8,0.1l0,0.1c0,0,0,0,0,0l0,0
						l0,0c-0.7,0-0.8-0.9-1.4-1l0.1-0.1c-0.4,0-0.7-0.2-1.1-0.1c-0.1,0-0.1-0.4,0-0.5c-0.3,0-0.4,0.1-0.6-0.2c0.3-0.2,0-0.3,0.3-0.1
						c-0.3-0.2-0.3-0.5-0.8-0.2c0.3-0.3-0.1-0.6-0.3-0.5L21,1.9c-0.2,0-0.3-0.1-0.5-0.2l0.2-0.5c-0.3-0.4-0.7-0.2-1-0.1
						c-0.4,0.1-0.6,0.2-0.8-0.3c-0.3,0.3,0.3,0.3,0.1,0.7c-0.3-0.1-0.5-0.9-0.6-0.9c-0.4-0.3-0.5,0.7-1,0.4c0,0.2,0,0.7-0.3,0.8
						C16.8,1.8,16.8,1.1,17,1c0.1,0,0.1,0,0.1,0.1C17.2,1,17.3,1,17.2,0.8l-0.1,0.2c-0.1-0.2-0.6-0.2-0.5-0.5
						c-0.3,0.2-0.1,0.3,0.1,0.4c-0.4-0.3-0.7-0.1-1.1-0.2c0.1,0.1,0.1,0.3,0.1,0.3c-0.6-0.2-0.3,0.4-0.7,0.5c-0.3-0.3,0-0.7-0.4-0.4
						c-0.3-0.2-0.1-0.5,0-0.6c-0.4,0.4-0.8-0.1-1-0.2L13.8,0c-0.1,0.1-0.2,0.1-0.3,0.1l0.2,0.3c-0.1,0-0.2,0-0.3-0.2
						c-0.1,0.3,0.2,0.6,0,1c-0.2-0.2-0.4,0.3-0.6-0.2c0.5,0.1-0.2-0.5,0.3-0.6c-0.1,0.1-0.2,0.1-0.3,0c0,0,0-0.1,0-0.1
						c-0.6-0.3-0.1,0.6-0.6,0.7c0-0.3-0.2-0.5-0.3-0.4c0.2,0,0.2,0.4,0.1,0.7c-0.4-0.1-0.3,0.2-0.5,0.3l0.2,0c0,0.3-0.2,0.3-0.3,0.4
						c-0.1-0.2,0.1-0.2,0-0.3c-0.1,0.5-0.7-0.3-0.9,0.1c-0.2-0.1-0.2-0.5-0.4-0.5C9.8,1.9,9.5,1.3,9.2,1.7C9.5,2,9.4,1.9,9.3,2.4
						l0.5-0.5L9.7,2.5c0.2-0.1,0.3-0.4,0.4-0.4C10,2.5,10,2.4,10.2,2.6C9.8,2.2,9.9,3.2,9.4,2.9L9,2.1C8.4,2,8.5,2.9,7.8,3.1l0.3,0
						c0.1,0.4-0.3,0.2-0.4,0.5C7.5,3.3,7.3,3.3,7.2,3.2C7.3,3.4,6.8,3.4,7.1,4L6.6,3.8C6.1,4,6.7,4.9,6.3,5.1
						C6.1,4.7,5.8,4.7,5.9,4.3C5.8,4.4,5.7,4.5,5.8,4.7C5.6,4.6,5.7,5.3,5.4,5.2c0,0.1,0.2,0.4,0.1,0.5c-0.1,0-0.1-0.1-0.1-0.1
						C5.5,5.6,5.4,5.9,5.7,6C4.7,5.7,4.8,7,4,6.9c-0.1,0.4-0.3,0.7-0.5,1C3.4,7.8,3.4,7.8,3.4,7.8C2.9,8,4,8.5,3.5,8.7
						c-0.6,0-0.1-0.4-0.3-0.3C2.3,8,2.9,9,2.3,9l0-0.1C1.8,9,2.3,9.7,2.1,10C2.1,10,2,10,1.9,10c0.3,0.5,0.3,1,0.3,1.5
						c-0.3-0.2-0.1-0.2-0.5-0.3c0,0.2,0.6,0.2,0.6,0.5c-0.2,0-0.5,0.2-0.9,0.1c0,0,0.1-0.3,0.1-0.3c-0.6,0-0.1,0.4-0.3,0.6L1,11.9
						c-0.1,0.6,0.5,0.7,0.4,1.2l0.2,0c0.5,0.4-0.4,0.2,0,0.6l-0.6,0c0.1,0.2,0.5,0.8,0.6,1.2c-0.4-0.2-0.6-0.7-0.8-1
						c0,0.2-0.1,0.7,0.2,0.8c0-0.1-0.2-0.2-0.1-0.3c0.4,0.3,0.7,0.6,0.6,1c-1.2-0.1-0.4,1-1.2,1.3c0.2,0.4,0.2,0.7,0.1,1.1
						c0,0.4-0.1,0.8,0,1.2c0.9-0.5,0.1,0.2,1,0c0.1,0.2,0.1,0.2,0,0.3L1,20.2c-0.2,0.2-0.3-0.1-0.5-0.1c0,0.5-0.3,0.3-0.5,0.6
						c0.3-0.2,0.5,0,0.5,0.3l0.3-0.5c0.6,0.4-0.6,0.8,0.1,1.2l-0.4-0.1c0.3,0.3,0.4,1.2,1.3,1.1c-0.1,0.1-0.3,0.3-0.4,0.2
						c0.1,0.4,0.5,0.7,0.8,1c0.3,0.3,0.6,0.5,0.6,0.9l-0.2,0.1c0.1,0.1,0.5,0,0.4,0.2c-0.1,0-0.2,0.1-0.2,0.1c0.1,0,0.6,0.1,0.6,0.3
						l-0.3,0c0.1,0.4,0.4,0.5,0.7,0.6c0.3,0.1,0.7,0.1,1,0.2c-0.5,0.5-0.3,1.1-0.1,1.3l-0.1,0.1c0.6,0.7,1.5,0.6,2.3,0.8
						c0,0.9,1.2,1.2,1.8,1.9c-0.1-0.2,0.3-0.5,0.4-0.5c0.1,0.2,0.7-0.2,0.4,0.4l-0.1,0c-0.1,0.6,0.3,0.7,0.6,0.8l0.4-0.7
						c0.1,0.7,0.7,0.8,1.2,0.8c0.5,0,0.9,0,1,0.5c0.2-0.1,0.5-0.1,0.7-0.3l-0.1,0.4c0.5,0.2,0.8,0.3,1.5,0.3l-0.2,0.3
						c0.4,0.1,0.6-1.2,0.9-1.3l0.1,0.7c0.6,0,1.3,0.6,1.9-0.1c0,0.1,0,0.3-0.1,0.3c0.3,0,1.3,0.3,1-0.6c0.1,0.6,0.7,0,1-0.4l0,0.4
						c0.2-0.6,0.1-0.8,0.5-1c0.1,0,0.2,0.3,0,0.2c0.4,0.1,0.1-0.5,0.6-0.3L20.2,31c0.3-0.1,0.3-0.2,0.3-0.5c0.1-0.2,0.6-0.1,0.8,0.3
						c0-0.2,0-0.6,0.2-0.6c0.1,0.1,0,0.2,0,0.3c0.6,0.1,0.5-0.8,1-0.5c0.1,0.1,0.1,0.2,0.2,0.2c-0.4,0.2-0.7,0.3-0.7,0.3
						c0.2,0.4,0.5,0.3,0.5,0.9c0.2-0.4,0.3-1.2,0.7-1.2c0,0,0.1,0.1,0.1,0.1l0,0.1c0.1,0,0.1-0.1,0.2-0.2c0.1,0,0.2,0,0.3,0
						c0.2,0.3,0.4-0.1,0.6-0.1c-0.2-0.4,0-0.4-0.4-0.6c0,0,0,0.1-0.1,0.1c0,0,0,0,0,0.1l0,0c-0.1,0.1-0.2,0.2-0.4,0.2
						c0-0.3,0-0.5,0.3-0.4c-0.1-0.3-0.1-0.6-0.2-0.7c0.5,0.4,1.1,0.4,1.4,0.7c0.3-0.5,1-0.9,0.6-1.8c0-0.2,0.3,0.1,0.4,0.1
						c0,0.1-0.1,0.2-0.1,0.3c0.1-0.4,0.6-0.7,0.3-1.1c0.5-0.1,0.2,0.5,0.5,0.1l0.1,0.2c0.7-0.1,0.7-0.6,0.7-1.2c0-0.6,0-1.1,0.8-1.2
						c-0.1,0-0.2,0-0.2,0c0.6-0.4,0.8-1,1-1.6c0.2-0.6,0.5-1.2,1-1.7c0.3-0.3-0.1-0.4-0.2-0.7l0.5,0.1l-0.4-0.5
						c-0.3-0.6,1.4-0.6,0.7-1.4l-0.3,0c0.1-0.2-0.1-0.8,0.3-0.7c-0.1,0-0.3-0.1-0.1-0.2l0.2,0c0,0-0.1-0.2-0.2-0.3
						c-0.1-0.2-0.2-0.3-0.2-0.3c0.2-0.4,1,0.1,1.1-0.5c-0.1-0.3-0.7-0.7-0.9-0.6c0,0.1-0.2,0.2-0.4,0.3l-0.1-0.2
						c-0.7,0-1.5-0.2-2,0.3l0.4,0.3L28.3,17l0-0.3c-0.3,0.1-0.1,0.2,0.1,0.4c-0.2,0-0.3,0-0.4,0.1l0.7,0.4c-0.3,0-0.5-0.2-0.7,0
						c0.3,0.2,0.7-0.1,0.8,0.2c-0.4,0.1-0.6,0-0.4,0.3c-0.2,0-0.3-0.1-0.4-0.1c0.2,0.2,0,0.4,0.4,0.6c-0.4,0.1,0,0.6-0.7,0.4
						c0.1,0.1,0.5,0.4,0.4,0.5c-0.7-0.5-0.2,0.5-1,0.2c0.7,0.4,0.1,0.7,0.4,1.2c0,0-0.1-0.1-0.1-0.1c-0.1,0.2-0.3,0.1-0.5,0.2
						c0.6,0.3,0.5,0.6,0.8,0.9c-0.6,0-0.6-0.4-1.1-0.6c0.5,0.2,0.3,0.6,0.7,0.7c-0.4,0-0.2,0.1-0.7-0.1c0.7,0.4,0,0.2,0.4,0.6
						c-0.5,0-0.7-0.3-0.6,0.1C26.1,22.4,26,22.1,26,22.1z M21.9,27.7L21.9,27.7c0,0,0.1-0.1,0.1-0.1C22,27.7,22,27.7,21.9,27.7z
						 M21.4,28c0.1,0,0.2-0.1,0.2-0.1c0.1,0.1,0.1,0.3,0.1,0.3C21.7,28.1,21.5,28.1,21.4,28z M24.1,30c-0.1,0.1-0.1,0.1-0.2,0
						c0,0,0.1-0.1,0.2-0.2c0,0,0,0,0-0.1C24,29.9,24,30,24.1,30z"/>
					<path fill="#FFF9F9" d="M23.9,29.4C24,29.4,23.9,29.4,23.9,29.4c0-0.1-0.1-0.1-0.1-0.1L23.9,29.4L23.9,29.4z"/>
					<path fill="#FFF9F9" d="M24.6,4.3L24.6,4.3C24.6,4.3,24.6,4.3,24.6,4.3C24.6,4.3,24.6,4.3,24.6,4.3z"/>
					<polygon fill="#FFF9F9" points="13.3,28 13.2,28.1 13.3,28.1 					"/>
					<path fill="#FFF9F9" d="M26.2,7.9c0,0,0,0.1-0.1,0.1C26.2,8,26.2,7.9,26.2,7.9z"/>
					<path fill="#FFF9F9" d="M27,9.2l0,0.3C27,9.3,27,9.2,27,9.2z"/>
					<path fill="#FFF9F9" d="M27.4,10.2c0.1,0,0.1,0,0.2-0.1l0,0L27.4,10.2z"/>
					<path fill="#FFF9F9" d="M12.4,4.4C12.4,4.4,12.3,4.4,12.4,4.4C12.3,4.5,12.3,4.5,12.4,4.4z"/>
					<path fill="#FFF9F9" d="M17.5,2.9c-0.1,0.1-0.1,0.1-0.2,0.2C17.4,3.1,17.5,3.2,17.5,2.9z"/>
					<polygon fill="#FFF9F9" points="7.8,7.6 7.8,7.6 7.8,7.6 					"/>
					<path fill="#FFF9F9" d="M17.1,3.1c0.1,0.1,0.2,0.1,0.3,0C17.3,3.1,17.2,3,17.1,3.1z"/>
					<path fill="#FFF9F9" d="M28.6,14.9L28.6,14.9C28.7,14.9,28.7,14.9,28.6,14.9L28.6,14.9z"/>
					<path fill="#FFF9F9" d="M28.7,14.9L28.7,14.9C28.8,15,28.7,15,28.7,14.9z"/>
					<path fill="#FFF9F9" d="M28.9,15.1L28.8,15C28.8,15,28.7,15.1,28.9,15.1z"/>
					<path fill="#FFF9F9" d="M28.6,13.4l-0.2,0C28.5,13.4,28.5,13.4,28.6,13.4z"/>
					<path fill="#FFF9F9" d="M28.4,13c0,0.1-0.3,0.3-0.1,0.5l0.1,0C28.2,13.4,28.7,13,28.4,13z"/>
					<path fill="#FFF9F9" d="M29.6,10.4l0,0.5c0.1-0.1,0.3-0.3,0.4-0.1C30.4,10,29.8,11,29.6,10.4z"/>
					<path fill="#FFF9F9" d="M29.3,9.1c0.2,0.2,0.2-0.1,0.3-0.2C29.4,8.9,29.3,8.9,29.3,9.1z"/>
					<path fill="#FFF9F9" d="M22.1,2.5l0.2-0.4C22.1,2.1,22.3,2.3,22.1,2.5z"/>
					<path fill="#FFF9F9" d="M19.8,3.8l0.1,0.3L20,3.7C20,3.7,19.8,3.8,19.8,3.8z"/>
					<polygon fill="#FFF9F9" points="19.5,0.8 19.5,0.7 19.2,0.8 					"/>
					<path fill="#FFF9F9" d="M3.8,6.3l0.4,0.3C4.3,6.4,3.9,6,3.8,6.3z"/>
					<path fill="#FFF9F9" d="M1.1,13.1c-0.3,0-0.5,0.2-0.2,0.4C0.9,13.3,1.1,13.2,1.1,13.1z"/>
					<polygon fill="#FFF9F9" points="10.4,31.3 10.2,31.4 10.6,31.4 					"/>
				</g>
			</g>
		</g>
	</g>
</g>
</svg>
