<?xml version="1.0" encoding="utf-8"?>
<!-- Generator: Adobe Illustrator 18.0.0, SVG Export Plug-In . SVG Version: 6.00 Build 0)  -->
<!DOCTYPE svg PUBLIC "-//W3C//DTD SVG 1.1//EN" "http://www.w3.org/Graphics/SVG/1.1/DTD/svg11.dtd">
<svg version="1.1" id="Mode_Isolation" xmlns="http://www.w3.org/2000/svg" xmlns:xlink="http://www.w3.org/1999/xlink" x="0px"
	 y="0px" viewBox="0 0 40.7 19.7" enable-background="new 0 0 40.7 19.7" xml:space="preserve">
<g>
	<g>
		<g>
			<path fill="#705F42" d="M7.5,11c10.2,0,20.4,0,30.6,0c1.5,0,1.5-2.2,0-2.2c-10.2,0-20.4,0-30.6,0C6,8.7,6,11,7.5,11L7.5,11z"/>
		</g>
	</g>
	<g>
		<g>
			<path fill="#705F42" d="M29.8,1.9c3,2.8,6,5.7,9,8.5c0-0.5,0-1.1,0-1.6c-3,3-6,6-9,9c-1,1,0.6,2.6,1.6,1.6c3-3,6-6,9-9
				c0.4-0.4,0.4-1.2,0-1.6c-3-2.8-6-5.7-9-8.5C30.3-0.7,28.8,0.9,29.8,1.9L29.8,1.9z"/>
		</g>
	</g>
	<circle fill="#705F42" cx="1.9" cy="9.9" r="1.9"/>
</g>
</svg>
