<?xml version="1.0" encoding="utf-8"?>
<!-- Generator: Adobe Illustrator 18.0.0, SVG Export Plug-In . SVG Version: 6.00 Build 0)  -->
<!DOCTYPE svg PUBLIC "-//W3C//DTD SVG 1.1//EN" "http://www.w3.org/Graphics/SVG/1.1/DTD/svg11.dtd">
<svg version="1.1" id="Mode_Isolation" xmlns="http://www.w3.org/2000/svg" xmlns:xlink="http://www.w3.org/1999/xlink" x="0px"
	 y="0px" viewBox="0 0 40.7 19.7" enable-background="new 0 0 40.7 19.7" xml:space="preserve">
<g>
	<g>
		<g>
			<path fill="#705F42" d="M33.2,8.8c-10.2,0-20.4,0-30.6,0c-1.5,0-1.5,2.2,0,2.2c10.2,0,20.4,0,30.6,0C34.7,11,34.7,8.8,33.2,8.8
				L33.2,8.8z"/>
		</g>
	</g>
	<g>
		<g>
			<path fill="#705F42" d="M10.9,17.8c-3-2.8-6-5.7-9-8.5c0,0.5,0,1.1,0,1.6c3-3,6-6,9-9c1-1-0.6-2.6-1.6-1.6c-3,3-6,6-9,9
				c-0.4,0.4-0.4,1.2,0,1.6c3,2.8,6,5.7,9,8.5C10.4,20.4,12,18.8,10.9,17.8L10.9,17.8z"/>
		</g>
	</g>
	<circle fill="#705F42" cx="38.9" cy="9.9" r="1.9"/>
</g>
</svg>
