<?xml version="1.0" encoding="utf-8"?>
<!-- Generator: Adobe Illustrator 17.1.0, SVG Export Plug-In . SVG Version: 6.00 Build 0)  -->
<!DOCTYPE svg PUBLIC "-//W3C//DTD SVG 1.1//EN" "http://www.w3.org/Graphics/SVG/1.1/DTD/svg11.dtd">
<svg version="1.1" id="sac" xmlns="http://www.w3.org/2000/svg" xmlns:xlink="http://www.w3.org/1999/xlink" x="0px" y="0px"
	 viewBox="0 0 75.1 74.5" enable-background="new 0 0 75.1 74.5" xml:space="preserve">
<g>
	<path fill="#D67C03" d="M64,66.2h-2.9v-26h12.6v16.2C73.8,61.9,69.4,66.2,64,66.2z"/>
	<path fill="#A86001" d="M55.7,32.9l16.5,0c1.6,0,2.9,1.3,2.9,2.9v10.4H55.7V32.9z"/>
</g>
<g>
	<path fill="#D67C03" d="M64.8,31.3h-1.2V20.1H69v7C69,29.4,67.1,31.3,64.8,31.3z"/>
	<path fill="#A86001" d="M61.2,17h7.1c0.7,0,1.2,0.6,1.2,1.2v4.5h-8.4V17z"/>
</g>
<path fill="none" stroke="#552700" stroke-width="2.6936" stroke-miterlimit="10" d="M45.8,7.2l-3-4.4c-1.3-1.9-7.9-1.9-9.2,0
	l-3,4.4"/>
<g>
	<path fill="#D67C03" d="M11.1,66.2H14v-26H1.4v16.2C1.4,61.9,5.7,66.2,11.1,66.2z"/>
	<path fill="#A86001" d="M19.4,32.9H2.9c-1.6,0-2.9,1.3-2.9,2.9l0,10.4h19.4V32.9z"/>
</g>
<g>
	<path fill="#D67C03" d="M10.3,31.3h1.2V20.1H6.1v7C6.1,29.4,8,31.3,10.3,31.3z"/>
	<path fill="#A86001" d="M13.9,17H6.8c-0.7,0-1.2,0.6-1.2,1.2v4.5h8.4V17z"/>
</g>
<path fill="#FC9F24" d="M60.4,72.5H14.6c-2.1,0-3.8-1.7-3.8-3.8V10.3c0-2.1,1.7-3.8,3.8-3.8h45.8c2.1,0,3.8,1.7,3.8,3.8v58.4
	C64.2,70.8,62.5,72.5,60.4,72.5z"/>
<path fill="#B0711A" d="M60.4,47.5H14.6c-2.1,0-3.8-1.7-3.8-3.8V10.3c0-2.1,1.7-3.8,3.8-3.8h45.8c2.1,0,3.8,1.7,3.8,3.8v33.4
	C64.2,45.8,62.5,47.5,60.4,47.5z"/>
<path fill="#A86001" d="M60.6,74.5H14.5c-2,0-3.6-1.8-3.6-4v-4.1c0-2.2,53.4-2.2,53.4,0v4.1C64.2,72.7,62.6,74.5,60.6,74.5z"/>
<g>
	<path fill="#552700" d="M53.2,63.1L53.2,63.1c-1.5,0-2.7-1.2-2.7-2.7V5.6c0-0.5,0.4-1,1-1h3.4c0.5,0,1,0.4,1,1v54.8
		C55.8,61.9,54.7,63.1,53.2,63.1z"/>
	<g>
		<circle fill="#FFB34E" cx="53.2" cy="43" r="0.5"/>
		<circle fill="#FFB34E" cx="53.2" cy="46.7" r="0.5"/>
		<circle fill="#FFB34E" cx="53.2" cy="54.2" r="0.5"/>
		<circle fill="#FFB34E" cx="53.2" cy="58" r="0.5"/>
	</g>
	<path fill="none" stroke="#9C6A0A" stroke-miterlimit="10" d="M55.6,52.7h-5c-0.7,0-1.3-0.6-1.3-1.3v-2.4c0-0.7,0.6-1.3,1.3-1.3h5
		c0.7,0,1.3,0.6,1.3,1.3v2.4C56.9,52.2,56.3,52.7,55.6,52.7z"/>
	<path fill="#9C6A0A" d="M53.2,50c-0.3,0-0.5,0.2-0.5,0.5v2.2h1v-2.2C53.7,50.2,53.5,50,53.2,50z"/>
</g>
<g>
	<path fill="#552700" d="M21.8,63.1L21.8,63.1c-1.5,0-2.7-1.2-2.7-2.7V5.6c0-0.5,0.4-1,1-1h3.4c0.5,0,1,0.4,1,1v54.8
		C24.4,61.9,23.2,63.1,21.8,63.1z"/>
	<g>
		<circle fill="#FFB34E" cx="21.8" cy="43" r="0.5"/>
		<circle fill="#FFB34E" cx="21.8" cy="46.7" r="0.5"/>
		<circle fill="#FFB34E" cx="21.8" cy="54.2" r="0.5"/>
		<circle fill="#FFB34E" cx="21.8" cy="58" r="0.5"/>
	</g>
	<path fill="none" stroke="#9C6A0A" stroke-miterlimit="10" d="M24.2,52.7h-5c-0.7,0-1.3-0.6-1.3-1.3v-2.4c0-0.7,0.6-1.3,1.3-1.3h5
		c0.7,0,1.3,0.6,1.3,1.3v2.4C25.5,52.2,24.9,52.7,24.2,52.7z"/>
	<path fill="#9C6A0A" d="M21.8,50c-0.3,0-0.5,0.2-0.5,0.5v2.2h1v-2.2C22.3,50.2,22,50,21.8,50z"/>
</g>
<path opacity="0.39" fill="#FFB34E" stroke="#3F2208" stroke-width="0.6871" stroke-miterlimit="10" d="M38.4,29.3l6.5,3.9
	c0.3,0.2,0.3,0.6,0,0.8l-6.5,4.2c-0.1,0.1-0.3,0.1-0.5,0L31.4,34c-0.3-0.2-0.3-0.6,0-0.8l6.5-3.9C38.1,29.2,38.2,29.2,38.4,29.3z"/>
<path opacity="0.39" fill="#B0711A" stroke="#3F2208" stroke-width="0.25" stroke-miterlimit="10" d="M38.3,31l4,2.4
	c0.2,0.1,0.2,0.4,0,0.5l-4,2.6c-0.1,0.1-0.2,0.1-0.3,0l-4-2.6c-0.2-0.1-0.2-0.4,0-0.5l4-2.4C38.1,31,38.2,31,38.3,31z"/>
</svg>
