<?xml version="1.0" encoding="utf-8"?>
<!-- Generator: Adobe Illustrator 17.1.0, SVG Export Plug-In . SVG Version: 6.00 Build 0)  -->
<!DOCTYPE svg PUBLIC "-//W3C//DTD SVG 1.1//EN" "http://www.w3.org/Graphics/SVG/1.1/DTD/svg11.dtd">
<svg version="1.1" id="boussole" xmlns="http://www.w3.org/2000/svg" xmlns:xlink="http://www.w3.org/1999/xlink" x="0px" y="0px"
	 viewBox="0 0 29 33.7" enable-background="new 0 0 29 33.7" xml:space="preserve">
<circle fill="#EFEFEF" cx="14.5" cy="19.2" r="13.5"/>
<circle opacity="0.33" fill="none" stroke="#5B3C09" stroke-width="2.7589" stroke-miterlimit="10" cx="14.5" cy="19.2" r="12.4"/>
<g>
	<g>
		<polygon fill="#976A08" points="15.2,7.7 14.5,8.9 13.8,7.7 		"/>
		<polygon fill="#976A08" points="13.7,30.7 14.5,29.4 15.2,30.7 		"/>
	</g>
	<g>
		<polygon fill="#976A08" points="3,18.4 4.2,19.2 3,19.9 		"/>
		<polygon fill="#976A08" points="26,19.9 24.7,19.2 26,18.5 		"/>
	</g>
	<g>
		<polygon fill="#976A08" points="6.9,10.5 7.2,11.9 5.8,11.6 		"/>
		<polygon fill="#976A08" points="22.1,27.8 21.7,26.4 23.1,26.8 		"/>
	</g>
	<g>
		<polygon fill="#976A08" points="5.8,26.8 7.2,26.4 6.9,27.8 		"/>
		<polygon fill="#976A08" points="23.1,11.6 21.7,12 22.1,10.6 		"/>
	</g>
</g>
<circle fill="none" stroke="#82580D" stroke-width="2.8331" stroke-miterlimit="10" cx="14.5" cy="19.2" r="12.7"/>
<g>
	<path fill="none" stroke="#82580D" stroke-width="0.813" stroke-miterlimit="10" d="M16.7,2.9c0,0.8-1,1.5-2.2,1.5
		c-1.2,0-2.2-0.6-2.2-1.5c0-0.8,1-2.5,2.2-2.5C15.7,0.4,16.7,2.1,16.7,2.9z"/>
	
		<rect x="13.3" y="2.5" transform="matrix(-5.005025e-03 -1 1 -5.005025e-03 10.5631 18.5022)" fill="#BA830B" width="2.3" height="2.9"/>
</g>
<g>
	<polygon opacity="0.72" fill="#88651A" points="14.5,17.9 18.5,15.6 16.2,19.6 18.5,23.6 14.5,21.3 10.5,23.6 12.8,19.6 10.5,15.6 
			"/>
	<polygon fill="#7A5400" points="16.1,18 22.1,19.6 16.1,21.2 14.5,27.2 12.9,21.2 6.8,19.6 12.9,18 14.5,11.9 	"/>
</g>
<circle fill="#D8E1E5" stroke="#976A08" stroke-width="0.25" stroke-miterlimit="10" cx="14.6" cy="19.6" r="2.1"/>
<g>
	<polyline fill="#D15A26" points="13.6,18.4 15.7,20.5 13.6,18.4 20.5,13.5 15.7,20.5 	"/>
	<polyline fill="#6E8C90" points="13.6,18.4 8.8,25.3 15.7,20.5 13.6,18.4 15.7,20.5 	"/>
	<polygon fill="#01353C" points="15.7,20.5 8.8,25.3 14.6,19.4 	"/>
	<polygon fill="#B53204" points="15.7,20.5 20.5,13.5 14.6,19.4 	"/>
</g>
<path opacity="0.32" fill="#513600" d="M21.1,32.1h-6.6V6.7h6.6c0,0,6.9,7.5,6.9,12.5S21.1,32.1,21.1,32.1z"/>
<path opacity="0.42" fill="#F5FFFC" d="M4.9,9.7c5.3-5.3,13.8-5.3,19.1,0s5.3,13.8,0,19.1L4.9,9.7z"/>
<circle fill="#D8E1E5" cx="14.6" cy="19.4" r="0.8"/>
<circle fill="none" stroke="#BA830B" stroke-width="2" stroke-miterlimit="10" cx="14.5" cy="19.2" r="13.5"/>
<path opacity="0.58" fill="#7A5400" d="M15.9,4.8v-2h-1.5v1.9v1.1v0.9c6.9,0,12.5,5.6,12.5,12.5s-5.6,12.5-12.5,12.5v2
	c8,0,14.5-6.5,14.5-14.5C29,11.7,23.2,5.5,15.9,4.8z"/>
</svg>
